# xmcd CD database file
#
# Track frame offsets:
#	150
#	24251
#	49920
#	71674
#	89480
#	114819
#	134673
#	151880
#	163395
#	181903
#	208228
#	225351
#
# Disc length: 3275 seconds
#
# Revision: 0
# Processed by: cddbd v1.5.2PL0 Copyright (c) Steve Scherf et al.
# Submitted via: CDex 1.51
#
DISCID=a00cc90c
DTITLE=RocKdrigo González - En Vivo en el Café de Los Artesanos
DYEAR=1900
DGENRE=Blues
TTITLE0=Buscando Trabajo
TTITLE1=Solares Baldíos
TTITLE2=Aventuras en el DeFe
TTITLE3=Diva Francesa
TTITLE4=Chica con Suerte
TTITLE5=Canicas
TTITLE6=El Campeón
TTITLE7=Algo de Suerte
TTITLE8=Asalto Chido
TTITLE9=El Blues del Mudo
TTITLE10=Gustavo
TTITLE11=La Máquina del Tiempo
EXTD=
EXTT0=
EXTT1=
EXTT2=
EXTT3=
EXTT4=
EXTT5=
EXTT6=
EXTT7=
EXTT8=
EXTT9=
EXTT10=
EXTT11=
PLAYORDER=
